<?xml version="1.0" standalone="no"?>
<!DOCTYPE svg PUBLIC "-//W3C//DTD SVG 20010904//EN"
 "http://www.w3.org/TR/2001/REC-SVG-20010904/DTD/svg10.dtd">
<svg version="1.0" xmlns="http://www.w3.org/2000/svg"
 width="700.000000pt" height="700.000000pt" viewBox="0 0 700.000000 700.000000"
 preserveAspectRatio="xMidYMid meet">
<metadata>
Created by potrace 1.11, written by Peter Selinger 2001-2013
</metadata>
<g transform="translate(0.000000,700.000000) scale(0.100000,-0.100000)"
fill="#000000" stroke="none">
<path d="M2104 5921 c-2 -2 -4 -1066 -4 -2363 l0 -2358 133 0 c408 0 3038 0
3123 0 l100 0 0 460 0 460 -1068 0 c-847 0 -1068 3 -1069 13 -1 16 -1 1060 0
1067 1 3 437 5 971 4 701 -1 970 2 971 10 5 48 3 875 -2 891 -6 19 -22 19
-974 20 l-968 0 -1 433 c-1 271 3 436 9 440 5 3 471 6 1035 6 l1025 1 0 460 0
460 -1638 0 c-901 0 -1641 -2 -1643 -4z"/>
</g>
</svg>
