<svg xmlns="http://www.w3.org/2000/svg" width="2464.871" height="661.123" viewBox="0 0 2464.871 661.123">
  <g id="Exerlights" transform="translate(-244.129 -520)">
    <g id="Component_1_1" data-name="Component 1 – 1" transform="translate(244.129 520)">
      <path id="Path_1" data-name="Path 1" d="M253.955,0H32.129V-534.912H251.9v70.752H112.109v156.2H232.422v69.385H112.109V-70.752H253.955ZM535.6,0H450.83L409.473-108.35,366.748,0h-83.4V-1.367l83.4-176.367-75.537-167.48h80.664l37.6,100.146,39.307-100.146h78.955v1.367L452.2-178.418ZM793.652-42.725Q793.652,0,749.561,0H614.551q-44.092,0-44.092-42.725V-302.49q0-42.725,44.092-42.725h135.01q44.092,0,44.092,42.725v126.807L772.119-154.15H645.313v96.729H718.8v-57.422h74.854ZM718.8-205.078v-82.715H645.313v82.715Zm349.316,4.1H990.527v-78.955l-61.865,1.367V0H850.391V-345.215h78.271v12.646q24.268-4.443,48.193-8.887,29.053-5.127,48.535-5.127,42.725,0,42.725,42.041ZM1326.514,0H1116.309V-534.912h79.98V-71.436h130.225Zm416.65,83.4q0,42.725-44.092,42.725H1563.037q-44.092,0-44.092-42.725V28.027h75.537V69.385h70.752V-2.051h-80.322q-32.812,0-52.124-18.457t-19.312-50.928v-211.23q0-29.736,16.748-46.826t46.143-17.09q14.7,0,88.867,14.014v-12.646h77.93Zm-77.93-148.34V-277.2q-39.307-4.1-48.877-4.1-25.293,0-25.293,24.951v165.43q0,25.977,25.977,25.977ZM2030.273,0H1951.66V-279.932l-73.486,1.367V0H1799.9V-534.912h78.271v202.344q27.344-4.1,54.688-8.545,34.521-5.469,54.688-5.469,42.725,0,42.725,42.041Zm205.078,0h-86.816q-43.408,0-43.408-42.725v-235.84h-36.914v-66.65h36.914v-93.652h77.93v93.652H2233.3v66.65h-50.244V-66.65h52.295ZM2495.8-42.725Q2495.8,0,2452.393,0H2320.8q-43.408,0-43.408-42.725v-74.17h74.854v58.105h68.7v-54.687l-119.971-70.752q-23.584-14.014-23.584-37.6V-302.49q0-42.725,44.092-42.725h130.225q43.408,0,43.408,42.725v69.385h-74.17v-53.32h-68.7v49.9l119.629,70.068q23.926,13.672,23.926,38.281Z" transform="translate(-32.129 535)" fill="#fff"/>
      <rect id="Rectangle_2" data-name="Rectangle 2" width="798" height="71" transform="translate(252.871)" fill="#fff"/>
      <rect id="Rectangle_3" data-name="Rectangle 3" width="533" height="71" transform="translate(1198.871)" fill="#fff"/>
      <rect id="Rectangle_4" data-name="Rectangle 4" width="351" height="80" transform="translate(1436.871 189) rotate(90)" fill="#fff"/>
      <rect id="Rectangle_5" data-name="Rectangle 5" width="585" height="71" transform="translate(1879.871)" fill="#fff"/>
    </g>
  </g>
</svg>
