<svg id="Laag_2" data-name="Laag 2" xmlns="http://www.w3.org/2000/svg" viewBox="0 0 308.12 342.74">
  <defs>
    <style>
      .cls-1 {
        fill: #5bc5f2;
      }
    </style>
  </defs>
  <g>
    <path class="cls-1" d="M265.19,299.42l-52.59,29-52.59-29v60.65l31.51,18.19a42.15,42.15,0,0,0,42.15,0l31.52-18.19Z" transform="translate(-58.54 -41.17)"/>
    <path class="cls-1" d="M345.58,111.42,233.67,46.82a42.15,42.15,0,0,0-42.15,0l-111.9,64.6a42.17,42.17,0,0,0-21.08,36.51V277.15a42.16,42.16,0,0,0,21.08,36.5L99.1,324.9V155.06a9.08,9.08,0,0,1,13.62-7.86l100,56.3,99.79-56.3a9.08,9.08,0,0,1,13.63,7.86V324.9l19.48-11.25a42.16,42.16,0,0,0,21.08-36.5V147.93A42.17,42.17,0,0,0,345.58,111.42Z" transform="translate(-58.54 -41.17)"/>
  </g>
</svg>
