<svg xmlns="http://www.w3.org/2000/svg" width="421" height="133" viewBox="0 0 421 133">
  <g id="Group_1" data-name="Group 1" transform="translate(-868 -444)">
    <text id="Ne_Cage" data-name="Ne  Cage" transform="translate(868 552)" font-size="100" font-family="SegoeUI-Bold, Segoe UI" font-weight="700"><tspan x="0" y="0" xml:space="preserve">Ne  Cage</tspan></text>
    <g id="Laag_2" data-name="Laag 2" transform="translate(1002.876 500.866)">
      <g id="Laag_1" data-name="Laag 1" transform="translate(-0.01 0)">
        <path id="Path_3" data-name="Path 3" d="M26.416,0A26.417,26.417,0,1,0,52.824,26.414,26.417,26.417,0,0,0,26.416,0ZM40.934,7.762l5.591,5.591-5.591,5.591-5.591-5.591ZM22.447,3.811h7.93v7.93h-7.93ZM11.955,7.762l5.591,5.591-5.591,5.591L6.364,13.353ZM3.783,30.377v-7.93H11.7v7.93ZM14.265,45.063,8.675,39.472l5.591-5.591,5.591,5.591Zm16.111,3.951h-7.93v-7.93h7.93Zm-3.96-12.673a9.905,9.905,0,1,1,7.023-2.9A9.905,9.905,0,0,1,26.416,36.341Zm14.518,8.74-5.591-5.591L40.934,33.9l5.591,5.591ZM41.083,30.4V22.448h7.93v7.93Z" transform="translate(0.01 0)"/>
      </g>
    </g>
  </g>
</svg>
