<svg xmlns="http://www.w3.org/2000/svg" width="64.809" height="71.879" viewBox="0 0 64.809 71.879">
  <g id="small_logo_sport_en_bewegen" data-name="small logo sport en bewegen" transform="translate(0 -0.002)">
    <path id="Path_1" data-name="Path 1" d="M0,20.89c.86-3.52,3.26-5.61,6.34-7.31C13.45,9.63,20.47,5.5,27.51,1.42a9.09,9.09,0,0,1,9.75,0Q48.6,8,60,14.51a9,9,0,0,1,4.8,8.35V49.05a9,9,0,0,1-4.9,8.41q-11.31,6.49-22.6,13a9.09,9.09,0,0,1-9.76,0c-4-2.31-7.94-4.58-11.92-6.88-.34-.19-.66-.41-1-.63a7.78,7.78,0,0,0,2.82-4.48,35,35,0,0,1,2.14-5.17,45.92,45.92,0,0,1,6-9.87c1.14-1.47,1.63-1.63,3-.45a59.452,59.452,0,0,1,4.64,4.48c1.79,1.87,3.56,3.77,5.23,5.75,1.17,1.43,2.37,2.79,2.6,4.79,0,.31.62.6,1,.83a20.06,20.06,0,0,0,1.85.94,5.65,5.65,0,0,0,2.08.78,2.29,2.29,0,0,0,1.66-1c.19-.3-.21-1.2-.6-1.56a32.309,32.309,0,0,0-3-2.24c.3-.48.49-.83.71-1.15.56-.81.32-1.42-.36-2.07-1.23-1.17-2.39-2.41-3.51-3.67s-2.17-2.93-4-3.75c-.58-.27-.93-1.12-1.29-1.77C34.25,40.74,33,38,31.41,35.52,29,31.68,29.8,27.83,31,23.92c0-.07,0-.18.08-.22a48.579,48.579,0,0,1,4.54-3.17,22.44,22.44,0,0,1,4-1.39,5.74,5.74,0,0,1,1.56-.45,22.231,22.231,0,0,1,2.65.21l-.25-.81.33-.16-.76-.51.82-.48-1.34-.27-.23-.2,1-.3-.27-.42c-.57.1-1.32.45-1.66.21s-.39-1.06-.8-1.61a4.54,4.54,0,0,1-.13.72c-.39,1.88-.92,2.57-2.75,2.35-2.16-.27-3.61,1-5.29,1.77a3.79,3.79,0,0,1-2.47.55,5.38,5.38,0,0,0-2,.45c-.55.16-1.08.35-1.81.59a3.708,3.708,0,0,1,.11-1.62c.88-1.38.21-2.58-.46-3.66a2.23,2.23,0,0,0-4,.36,3.63,3.63,0,0,0,.41,3.8,7.16,7.16,0,0,1,.67,1.43H21.27a24.23,24.23,0,0,1-2.92.28A10.44,10.44,0,0,1,15,20.84a4.35,4.35,0,0,0-3.24-.19h-.12c-1.5.51-2.8.38-3.71-1.1A1.63,1.63,0,0,0,7,18.81l.29,1.51-1.72-.44-.23.37.69.56-.86.31,1.3.61-.91.48L6,23.29a7.51,7.51,0,0,1,5.16.11,3.31,3.31,0,0,0,1.87.14,3.82,3.82,0,0,1,2.84.52c.87.45,1.83.72,2.74,1.11a2,2,0,0,1,.78.58c1.61,2.16,1.71,4.7,1.9,7.25.24,3.06-.67,5.85-1.56,8.68a47.29,47.29,0,0,1-1.57,4.85c-.48,1.08-1.48,1.91-2.06,3-.76,1.38-1.32,2.88-2,4.3a7.48,7.48,0,0,1-1.24,1.88c-1,1-.76,2,.09,2.91l.54.68L11.8,61.49c-2.89-1.73-5.75-3.32-8.47-5.1C1.44,55.15.63,53.11,0,51Z" fill="#52d3f7"/>
  </g>
</svg>
